<svg version="1.1" width="493" height="367" viewBox="-1 0 493 367" xmlns="http://www.w3.org/2000/svg" xmlns:xlink="http://www.w3.org/1999/xlink">
  <!-- Exported by Scratch - http://scratch.mit.edu/ -->
  <g id="ID0.09381386637687683" transform="matrix(1, 0, 0, 1, 1, 0)">
    <path id="ID0.3961414685472846" fill="#99FFFF" stroke="#CCFFFF" stroke-width="2" d="M 0 0 L 479 0 L 479 290 L 0.950 275 L 0 0 Z " transform="matrix(1.004054069519043, 0, 0, 1, -0.95, 0)"/>
    <path id="ID0.42040406772866845" fill="#00CC44" stroke="#00CC44" stroke-width="2" d="M 52 269 C 60.363 268.629 69.776 271.946 74.900 278.400 C 80.356 285.241 78.861 295.444 78.400 304.100 C 78.625 313.007 79.547 323.209 74.200 330.450 C 69.260 337.157 60.262 342.052 52 342 C 39.709 341.923 25.705 337.910 16.654 331.303 C 7.603 324.695 2 315.570 2 305.500 C 2 295.430 7.603 286.305 16.654 279.697 C 25.705 273.090 39.718 269.535 52 269 Z " transform="matrix(1.441176414489746, 0, 0, 1.441176414489746, 369.05, -140.25)"/>
    <path id="ID0.42040406772866845" fill="#00CC44" stroke="#00CC44" stroke-width="2" d="M 52 269 C 65.795 269 78.295 273.090 87.346 279.697 C 96.397 286.305 102 295.430 102 305.500 C 102 315.570 96.397 324.695 87.346 331.303 C 78.295 337.910 65.795 342 52 342 C 38.205 342 25.705 337.910 16.654 331.303 C 7.603 324.695 2 315.570 2 305.500 C 2 295.430 7.603 286.305 16.654 279.697 C 25.705 273.090 38.205 269 52 269 Z " transform="matrix(1.1176469326019287, 0, 0, 0.9411764144897461, 20.9, -15.6)"/>
    <path id="ID0.42040406772866845" fill="#00CC44" stroke="#00CC44" stroke-width="2" d="M 52 269 C 65.795 269 78.295 273.090 87.346 279.697 C 96.397 286.305 102 295.430 102 305.500 C 102 315.570 96.397 324.695 87.346 331.303 C 78.295 337.910 65.795 342 52 342 C 38.205 342 25.705 337.910 16.654 331.303 C 7.603 324.695 2 315.570 2 305.500 C 2 295.430 7.603 286.305 16.654 279.697 C 25.705 273.090 38.205 269 52 269 Z " transform="matrix(1.441176414489746, 0, 0, 1.441176414489746, 117.55, -157.8)"/>
    <path id="ID0.42040406772866845" fill="#00CC44" stroke="#00CC44" stroke-width="2" d="M 52 269 C 65.795 269 78.295 273.090 87.346 279.697 C 96.397 286.305 102 295.430 102 305.500 C 102 315.570 96.397 324.695 87.346 331.303 C 78.295 337.910 65.795 342 52 342 C 38.205 342 25.705 337.910 16.654 331.303 C 7.603 324.695 2 315.570 2 305.500 C 2 295.430 7.603 286.305 16.654 279.697 C 25.705 273.090 38.205 269 52 269 Z " transform="matrix(1.441176414489746, 0, 0, 1.441176414489746, 245.55, -149.8)"/>
    <path id="ID0.42040406772866845" fill="#00CC44" stroke="#00CC44" stroke-width="2" d="M 55.100 259.300 C 63.587 255.886 78.224 270.266 87.346 279.697 C 94.220 286.788 102 295.619 102 305.500 C 102 315.381 96.244 327.012 87.346 331.303 L 57.950 327.300 L 56.550 290.150 C 56.091 277.779 48.189 261.113 55.100 259.300 Z " transform="matrix(0.7005103230476379, 0, 0, 0.9411764144897461, -41.6, 0.95)"/>
    <path id="ID0.03885363461449742" fill="#00CC44" stroke="#00CC44" stroke-width="2" d="M 10 279 L 480 276 L 488 336 L 8 341 L 10 279 Z " transform="matrix(1, 0, 0, 1, -9, 0)"/>
    <path id="ID0.33250138349831104" fill="#663B00" stroke="#663B00" stroke-width="2" d="M 1 344 L 480 344 L 480 360 L 1 360 L 1 344 Z " transform="matrix(1.0124739408493042, 0, 0, 1.558333396911621, -7, -197.45)"/>
  </g>
  <text id="ID0.7430099444463849" fill="#000000" x="235" y="98.25" text-anchor="start" font-family="Helvetica" font-size="22" transform="matrix(3.359288215637207, 0, 0, 3.359288215637207, 24, -1.55)">DOG PARK</text>
  <text id="ID0.9730505170300603" fill="#000000" x="241" y="166.25" text-anchor="start" font-family="Helvetica" font-size="22" transform="matrix(1.3478612899780273, 0, 0, 1.3478612899780273, 88, 265.55)">press any key to begin</text>
  <text id="ID0.22291322285309434" fill="#000000" x="156" y="111.25" text-anchor="start" font-family="Helvetica" font-size="22" transform="matrix(1, 0, 0, 1, 138, 92.15)">make lots of friends</text>
  <text id="ID0.18117134645581245" fill="#000000" x="239" y="131.25" text-anchor="start" font-family="Helvetica" font-size="22" transform="matrix(1, 0, 0, 1, 182, 125.15)">chase balls</text>
  <text id="ID0.11065345769748092" fill="#000000" x="237" y="173.25" text-anchor="start" font-family="Helvetica" font-size="22" transform="matrix(1, 0, 0, 1, 59, 165.15)">Don't let your human take you home</text>
  <text id="ID0.513522504363209" fill="#7F7F7F" x="197" y="310.25" text-anchor="start" font-family="Helvetica" font-size="22" transform="matrix(1, 0, 0, 1, 108, 307.15)">press 'spacebar' to restart</text>
</svg>